<?xml version="1.0" encoding="utf-8"?>
<!-- Generator: Adobe Illustrator 21.0.0, SVG Export Plug-In . SVG Version: 6.00 Build 0)  -->
<svg version="1.1" id="Layer_1" xmlns="http://www.w3.org/2000/svg" xmlns:xlink="http://www.w3.org/1999/xlink" x="0px" y="0px"
	 viewBox="0 0 1000 500" style="enable-background:new 0 0 1000 500;" xml:space="preserve">
<style type="text/css">
	.st0{fill:#020084;}
	.st1{fill:#FF941C;}
	.st2{fill:#FFFFFF;}
</style>
<path class="st0" d="M70.1,303.9L70.1,303.9c-12.4,0-22.5-10.1-22.5-22.5V170.6c0-12.4,10.1-22.5,22.5-22.5h0
	c12.4,0,22.5,10.1,22.5,22.5v110.8C92.6,293.8,82.5,303.9,70.1,303.9z"/>
<path class="st0" d="M194.2,282v0.2H47.6V282c0-40.5,32.8-73.3,73.3-73.3C161.4,208.7,194.2,241.5,194.2,282z"/>
<path class="st0" d="M242.8,355.4L242.8,355.4c-12.4,0-22.5-10.1-22.5-22.5V228.3c0-12.4,10.1-22.5,22.5-22.5h0
	c12.4,0,22.5,10.1,22.5,22.5v104.6C265.3,345.3,255.2,355.4,242.8,355.4z"/>
<path class="st0" d="M345.2,195.2v13.4H369v31.2h-23.7v66c0,2.8,0.2,5.2,0.7,7.1c0.5,1.9,1.3,3.4,2.4,4.5c1.1,1.1,2.6,1.9,4.5,2.3
	c1.9,0.4,4.2,0.7,6.9,0.7c2.6,0,4.7-0.1,6.4-0.2c1.7-0.1,3.3-0.3,4.8-0.6v32.1c-3.9,1.2-7.9,2.2-12,2.9s-8.5,1-13.3,1
	c-7.2,0-13.6-0.8-19.3-2.5c-5.6-1.6-10.4-4.2-14.3-7.8c-3.9-3.6-6.8-8.1-8.8-13.7c-2-5.6-3-12.3-3-20.1v-71.6h-18.4v-31.2h18.4
	v-13.4c0-12.4,10.1-22.5,22.5-22.5h0C335.2,172.7,345.2,182.8,345.2,195.2z"/>
<path class="st1" d="M575.7,279.3c0-10.5,1.5-20.2,4.5-29.2s7.5-16.7,13.3-23.3c5.9-6.6,13.1-11.7,21.8-15.4
	c8.7-3.7,18.6-5.5,29.8-5.5c11.4,0,21.4,1.8,30.1,5.5c8.7,3.7,15.9,8.8,21.8,15.4c5.9,6.6,10.3,14.3,13.3,23.3s4.5,18.7,4.5,29.2
	v2.8c0,10.6-1.5,20.3-4.5,29.3c-3,8.9-7.4,16.7-13.3,23.2c-5.9,6.5-13.1,11.6-21.8,15.3c-8.7,3.7-18.6,5.5-29.9,5.5
	c-11.3,0-21.3-1.8-29.9-5.5c-8.7-3.7-15.9-8.8-21.9-15.3c-5.9-6.5-10.4-14.3-13.4-23.2c-3-8.9-4.5-18.7-4.5-29.3V279.3z
	 M620.6,282.1c0,5.4,0.4,10.5,1.1,15.2c0.8,4.7,2.1,8.8,4,12.3c1.9,3.5,4.5,6.2,7.7,8.2c3.2,2,7.2,3,12,3c4.7,0,8.6-1,11.8-3
	s5.7-4.7,7.5-8.2s3.2-7.5,4-12.3c0.8-4.7,1.2-9.8,1.2-15.2v-2.8c0-5.2-0.4-10.2-1.1-14.9c-0.8-4.7-2.1-8.8-4-12.3
	c-1.9-3.5-4.5-6.3-7.7-8.4c-3.2-2.1-7.2-3.1-12-3.1c-4.7,0-8.6,1-11.8,3.1c-3.2,2.1-5.7,4.9-7.5,8.4c-1.9,3.5-3.2,7.6-4,12.3
	c-0.8,4.7-1.2,9.7-1.2,14.9V282.1z"/>
<path class="st1" d="M810.1,312.3c0-1.9-0.4-3.5-1.3-4.9c-0.8-1.4-2.3-2.8-4.5-4.1c-2.1-1.3-5-2.5-8.7-3.7
	c-3.6-1.2-8.3-2.4-13.9-3.6c-7-1.5-13.6-3.5-19.8-5.9c-6.2-2.4-11.6-5.5-16.1-9.1c-4.6-3.6-8.2-7.8-10.8-12.7
	c-2.6-4.9-3.9-10.5-3.9-16.8c0-6.1,1.3-11.9,3.9-17.5c2.6-5.5,6.5-10.3,11.5-14.5c5.1-4.2,11.3-7.5,18.7-9.9
	c7.4-2.4,15.8-3.7,25.2-3.7c9.7,0,18.4,1.2,26.3,3.5c7.8,2.3,14.5,5.5,19.9,9.7s9.7,9.1,12.6,14.8c2.9,5.7,4.4,12.1,4.4,19h-45
	c0-5.5-1.4-9.8-4.1-12.8c-2.8-3-7.5-4.5-14.1-4.5c-2.3,0-4.5,0.3-6.5,1c-2,0.7-3.8,1.6-5.3,2.8c-1.5,1.2-2.7,2.6-3.6,4.3
	c-0.9,1.7-1.3,3.6-1.3,5.6c0,3.9,1.9,7.1,5.7,9.6c3.8,2.5,9.9,4.5,18.3,6.1c7.3,1.3,14.3,3,21,5.1c6.7,2.1,12.6,4.9,17.8,8.4
	c5.2,3.5,9.3,7.9,12.3,13.1c3.1,5.2,4.6,11.7,4.6,19.3c0,6.4-1.5,12.3-4.4,17.7s-7.1,10.1-12.6,14.1c-5.5,4-12.1,7.1-19.8,9.3
	c-7.7,2.3-16.4,3.4-26.1,3.4c-10.4,0-19.6-1.5-27.5-4.4c-8-2.9-14.6-6.7-20-11.4c-5.4-4.7-9.4-9.9-12.2-15.7
	c-2.8-5.8-4.1-11.6-4.1-17.4h42c0.2,6.7,2.4,11.5,6.7,14.6c4.3,3.1,9.7,4.6,16.4,4.6c6.1,0,10.7-1.2,13.8-3.7
	C808.6,319.5,810.1,316.3,810.1,312.3z"/>
<path class="st1" d="M926.7,195.2v13.4h23.7v31.2h-23.7v66c0,2.8,0.2,5.2,0.7,7.1c0.5,1.9,1.3,3.4,2.4,4.5c1.1,1.1,2.6,1.9,4.5,2.3
	c1.9,0.4,4.2,0.7,6.9,0.7c2.6,0,4.7-0.1,6.4-0.2c1.7-0.1,3.3-0.3,4.8-0.6v32.1c-3.9,1.2-7.9,2.2-12,2.9c-4.1,0.7-8.5,1-13.3,1
	c-7.2,0-13.6-0.8-19.3-2.5c-5.6-1.6-10.4-4.2-14.3-7.8c-3.9-3.6-6.8-8.1-8.8-13.7c-2-5.6-3-12.3-3-20.1v-71.6h-18.4v-31.2h18.4
	v-13.4c0-12.4,10.1-22.5,22.5-22.5h0C916.7,172.7,926.7,182.8,926.7,195.2z"/>
<circle class="st0" cx="242.8" cy="170.6" r="22.5"/>
<path class="st1" d="M194.2,282.1c-0.1,40.4-32.9,73.1-73.3,73.1c-40.4,0-73.2-32.7-73.3-73.1H194.2z"/>
<g>
	<path class="st1" d="M71.9,282.2v3.4c0.4,2.5,0.7,5,1.2,7.4c4.4,19.6,20.5,34.6,40.3,37.6c1.4,0.2,2.7,0.3,4.1,0.5h6.8
		c2.5-0.4,5-0.6,7.4-1.2c19.3-4.3,34.2-20.1,37.5-39.6c0.2-1.6,0.5-3.2,0.7-4.8v-3.4H71.9z M81.6,302.9c-3-5.6-4.7-11.7-5.1-18.1
		c0-0.1,0-0.3,0.1-0.5h1.6c4.8,0,9.8,0,14.6,0c0.9,0,1.2,0.2,1.3,1.1c0.2,5.8,1,11.4,2.5,17c0.1,0.3,0.1,0.6,0.2,1.1h-5.3
		c-2.9,0-5.7,0-8.5,0C82.5,303.6,81.8,303.3,81.6,302.9z M84.7,308h12.5c0.6,0,1,0.1,1.2,0.8c1.8,5.1,4.2,10.1,7.2,14.6
		c0,0.2,0.1,0.3,0.2,0.6C97,320.7,90.2,315.5,84.7,308z M118.5,326.7c-1.9-0.3-3.7-0.5-5.6-0.8c-0.3,0-0.6-0.3-0.7-0.6
		c-4-5.1-7-10.8-9.3-16.9c-0.1,0,0-0.1,0-0.3h15.6V326.7z M118.7,302.4c0,0.3,0,0.7-0.1,1.1c-0.4,0-0.7,0.1-1.1,0.1h-15.1
		c-0.6,0-1.1,0-1.3-0.8c-1.6-5.8-2.5-11.7-2.7-17.6c0-0.3,0-0.5,0.1-0.8c0.4,0,0.8-0.1,1.1-0.1c5.9,0,11.9,0,17.8,0
		c1,0,1.4,0.2,1.4,1.3C118.6,291.2,118.7,296.8,118.7,302.4z M123.1,285.6c0-0.7,0-1.2,1-1.2c5.8,0,11.7,0,17.5,0
		c0.2,0,0.4,0.1,0.8,0.1c-0.2,2.3-0.2,4.6-0.6,6.9c-0.6,3.8-1.4,7.5-2.2,11.4c0,0.3-0.6,0.9-0.9,0.9c-5.1,0-10.3,0-15.5,0
		c0-0.5,0-0.9,0-1.3C123.1,296.8,123.1,291.2,123.1,285.6z M128.8,325c-0.6,0.8-1.3,1.2-2.2,1.3c-1.1,0-2.2,0.2-3.4,0.3V308h14.7
		c-0.1,0.4-0.2,0.7-0.3,1C135.3,314.7,132.4,320,128.8,325z M134.8,324.4c1.9-3.8,3.8-7.5,5.7-11.2c0.7-1.4,1.1-2.9,1.8-4.4
		c0.2-0.4,0.7-0.8,1-0.8c4.5-0.1,9,0,13.8,0C151.3,315.9,143.9,321.3,134.8,324.4z M164.3,291.8c-0.8,3.8-2.2,7.5-4,10.9
		c-0.2,0.4-0.8,0.8-1.1,0.8c-4.9,0-9.8,0-14.7,0h0c0.9-6.4,1.9-12.7,2.8-19.1h18.3C165.1,287,164.8,289.4,164.3,291.8z"/>
	<g>
		<g>
			<path class="st0" d="M168.6,271.1c-4.3-19.2-20.9-34.6-40.4-37.4c-1.3-0.2-2.6-0.4-4-0.5h-6.8c-2.4,0.4-5,0.7-7.4,1.2
				c-19.3,4.3-34.2,20.1-37.5,39.6c-0.3,1.6-0.5,3.2-0.7,4.8v3.4h98v-3.4C169.4,276.2,169.2,273.6,168.6,271.1z M123.2,237.7
				c1.5,0.2,3,0.3,4.5,0.6c0.2,0,0.4,0.2,0.6,0.5c4.1,5.2,7.2,11,9.5,17.3c0,0.1,0,0.2,0,0.3h-14.6V237.7z M111.9,239.4
				c0.6-0.7,1.2-1.1,2.1-1.1c1.5-0.2,3-0.3,4.6-0.6v18.6h-15.7c0.2-0.4,0.2-0.8,0.3-1.1C105.4,249.5,108.2,244.2,111.9,239.4z
				 M95.6,266c-0.6,4.2-1.1,8.5-1.6,12.7c-0.1,0.7,0,1.2-1,1.2c-5.3-0.1-10.7,0-16-0.1c-0.2,0-0.3,0-0.6-0.1
				c0.4-6.7,2.1-12.8,5.3-18.6c0.2-0.3,0.6-0.5,1-0.5c4.6,0,9.3,0,14.1,0C96.3,262.5,95.8,264.3,95.6,266z M96.9,256.3
				c-4,0-8,0-12.2,0c5.5-7.5,12.4-12.8,21-15.7c-0.3,0.5-0.7,1-1,1.5c-2,4.3-4.2,8.7-6.1,13.1C98.2,256,97.9,256.3,96.9,256.3z
				 M117.7,280c-6.3-0.1-12.6,0-18.9-0.1c-0.1,0-0.2,0-0.5-0.1c0.1-4.7,0.7-9.3,1.6-13.8c0.3-1.6,0.7-3.1,1.2-4.6
				c0.1-0.3,0.6-0.7,0.9-0.7c5.4,0,10.8,0,16.1,0c0.2,0,0.2,0.1,0.4,0.1c0,0.4,0.1,0.7,0.1,1.1c0,5.6,0,11.2,0,16.8
				C118.7,279.4,118.7,280,117.7,280z M142.3,279.8c-0.3,0-0.7,0.1-1,0.1h-17c-0.7,0-1.2,0-1.2-1c0-5.9,0-11.7,0-17.6
				c0-0.2,0-0.4,0.1-0.7h15.1c0.6,0,1,0,1.3,0.7c1.6,5.9,2.6,12,2.7,18.1C142.3,279.6,142.3,279.7,142.3,279.8z M142.3,255.7
				c-1.2-2.7-2.2-5.4-3.4-8.1c-1.3-2.6-2.8-5.1-4.3-7.8c9.2,3.1,16.6,8.5,22.4,16.5h-6.8c-2.3,0-4.5,0-6.8,0
				C143.1,256.3,142.5,256,142.3,255.7z M165.3,279.8h-18.2c-0.9-6.4-1.9-12.8-2.8-19.2h7.5c1.9,0,3.7,0.2,5.5,0
				c2.1-0.3,2.9,0.7,3.7,2.4c2.3,5.1,3.8,10.4,4.2,16V279.8z"/>
			<g>
				<path class="st2" d="M118.5,308v18.6c-1.9-0.3-3.7-0.5-5.6-0.8c-0.3,0-0.6-0.3-0.7-0.6c-4-5.1-7-10.8-9.3-16.9
					c-0.1,0,0-0.1,0-0.3H118.5z"/>
				<path class="st2" d="M137.8,308c-0.1,0.4-0.2,0.7-0.3,1c-2.2,5.7-5.1,11-8.8,16c-0.6,0.8-1.3,1.2-2.2,1.3
					c-1.1,0-2.2,0.2-3.4,0.3V308H137.8z"/>
				<path class="st2" d="M157.1,308c-5.9,8-13.2,13.4-22.3,16.4c1.9-3.8,3.8-7.5,5.7-11.2c0.7-1.4,1.1-2.9,1.8-4.4
					c0.2-0.4,0.7-0.8,1-0.8C147.8,307.9,152.3,308,157.1,308z"/>
				<path class="st2" d="M165.4,284.5c-0.4,2.5-0.6,4.9-1.1,7.4c-0.8,3.8-2.2,7.5-4,10.9c-0.2,0.4-0.8,0.8-1.1,0.8
					c-4.9,0-9.8,0-14.7,0h0c0.9-6.4,1.9-12.7,2.8-19.1H165.4z"/>
				<path class="st2" d="M142.5,284.5c-0.2,2.3-0.2,4.6-0.6,6.9c-0.6,3.8-1.4,7.5-2.2,11.4c0,0.3-0.6,0.9-0.9,0.9
					c-5.1,0-10.3,0-15.5,0c0-0.5,0-0.9,0-1.3c0-5.6,0-11.2,0-16.8c0-0.7,0-1.2,1-1.2c5.8,0,11.7,0,17.5,0
					C141.8,284.4,142,284.5,142.5,284.5z"/>
				<path class="st2" d="M142.4,279.4c0,0.1,0,0.3-0.1,0.4c-0.3,0-0.7,0.1-1,0.1h-17c-0.7,0-1.2,0-1.2-1c0-5.9,0-11.7,0-17.6
					c0-0.2,0-0.4,0.1-0.7h15.1c0.6,0,1,0,1.2,0.7C141.2,267.3,142.1,273.3,142.4,279.4z"/>
				<path class="st2" d="M165.3,278.9v0.9h-18.2c-0.9-6.5-1.9-12.8-2.8-19.2h7.5c1.9,0,3.7,0.2,5.5,0c2.1-0.3,2.9,0.7,3.7,2.4
					C163.4,268.1,164.8,273.3,165.3,278.9z"/>
				<path class="st2" d="M157.1,256.3h-6.8c-2.3,0-4.6,0-6.8,0c-0.4,0-1-0.3-1.1-0.6c-1.2-2.7-2.2-5.4-3.4-8.1
					c-1.3-2.6-2.8-5.1-4.3-7.8C143.8,242.9,151.2,248.4,157.1,256.3z"/>
				<path class="st2" d="M137.8,255.9c0,0.1,0,0.2,0,0.3h-14.6v-18.6c1.5,0.2,3,0.3,4.5,0.6c0.2,0,0.4,0.3,0.6,0.5
					C132.3,243.9,135.5,249.7,137.8,255.9z"/>
				<path class="st2" d="M118.5,237.7v18.6h-15.7c0.1-0.4,0.2-0.8,0.3-1.1c2.2-5.7,5.1-10.9,8.7-15.8c0.6-0.7,1.2-1.1,2.1-1.1
					C115.4,238,116.9,237.9,118.5,237.7z"/>
				<path class="st2" d="M118.7,278.7c0,0.7,0,1.2-0.9,1.2c-6.3,0-12.6,0-18.9,0c-0.1,0-0.3,0-0.5-0.1c0.1-4.7,0.7-9.3,1.6-13.8
					c0.3-1.6,0.7-3.1,1.2-4.6c0.1-0.3,0.6-0.7,0.9-0.7c5.4,0,10.8,0,16.1,0c0.1,0,0.2,0.1,0.4,0.1c0,0.4,0,0.7,0,1.1
					C118.7,267.5,118.6,273.1,118.7,278.7z"/>
				<path class="st2" d="M118.7,285.6c0,5.6,0,11.2,0,16.8c0,0.3,0,0.7-0.1,1.1c-0.4,0-0.7,0.1-1.1,0.1h-15.1c-0.6,0-1.1,0-1.3-0.8
					c-1.6-5.8-2.5-11.7-2.7-17.6c0-0.3,0-0.5,0.1-0.8c0.4,0,0.8-0.1,1.1-0.1c5.9,0,11.9,0,17.8,0
					C118.3,284.4,118.7,284.6,118.7,285.6z"/>
				<path class="st2" d="M105.7,324c-8.7-3.3-15.5-8.5-21-16h12.5c0.6,0,1,0.1,1.2,0.8c1.8,5.1,4.2,10.1,7.2,14.6
					C105.6,323.5,105.6,323.6,105.7,324z"/>
				<path class="st2" d="M96.7,303.6h-5.3c-2.9,0-5.7,0-8.5,0c-0.4,0-1.1-0.3-1.3-0.6c-3-5.6-4.7-11.7-5.1-18.1c0-0.1,0-0.3,0.1-0.5
					h1.6c4.8,0,9.8,0,14.6,0c0.9,0,1.2,0.2,1.3,1.1c0.2,5.8,1,11.4,2.5,17C96.6,302.8,96.6,303.2,96.7,303.6z"/>
				<path class="st2" d="M96.7,260.6c-0.4,1.9-0.9,3.6-1.1,5.4c-0.6,4.3-1.1,8.5-1.5,12.7c-0.1,0.7,0,1.2-1,1.2
					c-5.3,0-10.6,0-15.9,0c-0.2,0-0.3,0-0.6-0.1c0.4-6.7,2.1-12.8,5.2-18.6c0.2-0.3,0.6-0.6,1-0.6C87.3,260.6,91.9,260.6,96.7,260.6
					z"/>
				<path class="st2" d="M105.7,240.6c-0.3,0.5-0.7,1-1,1.5c-2,4.3-4.2,8.7-6.2,13.1c-0.3,0.8-0.7,1.1-1.6,1.1c-4,0-8,0-12.2,0
					C90.2,248.8,97.1,243.6,105.7,240.6z"/>
			</g>
		</g>
	</g>
</g>
<g>
	<path class="st1" d="M533.2,355.3L533.2,355.3c-12.5,0-22.6-11.1-22.6-24.8v-61.7h-67.1v61.7c0,13.7-10.1,24.8-22.6,24.8h-0.3
		c-12.5,0-22.6-11.1-22.6-24.8V172.8c0-13.7,10.1-24.8,22.6-24.8h0.3c12.5,0,22.6,11.1,22.6,24.8v57.5h67.1v-57.5
		c0-13.7,10.1-24.8,22.6-24.8h0c12.5,0,22.6,11.1,22.6,24.8v157.6C555.9,344.1,545.7,355.3,533.2,355.3z"/>
</g>
</svg>
